<svg width="192" height="192" viewBox="0 0 192 192" xmlns="http://www.w3.org/2000/svg">
  <defs>
    <linearGradient id="bg" x1="0%" y1="0%" x2="100%" y2="100%">
      <stop offset="0%" style="stop-color:#667eea;stop-opacity:1" />
      <stop offset="100%" style="stop-color:#764ba2;stop-opacity:1" />
    </linearGradient>
  </defs>
  
  <!-- 背景圆形 -->
  <circle cx="96" cy="96" r="88" fill="url(#bg)" stroke="#fff" stroke-width="4"/>
  
  <!-- 任务卡片图标 -->
  <rect x="48" y="48" width="96" height="96" rx="12" fill="#fff" opacity="0.9"/>
  
  <!-- 复选框 -->
  <rect x="60" y="72" width="16" height="16" rx="3" fill="#48bb78" stroke="#38a169" stroke-width="2"/>
  <path d="M64 78 L68 82 L76 74" stroke="#fff" stroke-width="2" fill="none" stroke-linecap="round"/>
  
  <!-- 任务文本线条 -->
  <rect x="84" y="74" width="48" height="3" rx="1.5" fill="#4a5568"/>
  <rect x="84" y="82" width="36" height="3" rx="1.5" fill="#718096"/>
  
  <!-- 第二个任务 -->
  <rect x="60" y="100" width="16" height="16" rx="3" fill="#e2e8f0" stroke="#cbd5e0" stroke-width="2"/>
  <rect x="84" y="102" width="42" height="3" rx="1.5" fill="#4a5568"/>
  <rect x="84" y="110" width="30" height="3" rx="1.5" fill="#718096"/>
  
  <!-- 第三个任务 -->
  <rect x="60" y="128" width="16" height="16" rx="3" fill="#e2e8f0" stroke="#cbd5e0" stroke-width="2"/>
  <rect x="84" y="130" width="38" height="3" rx="1.5" fill="#4a5568"/>
  <rect x="84" y="138" width="28" height="3" rx="1.5" fill="#718096"/>
</svg>